<svg width="24" height="24" viewBox="0 0 24 24" fill="none" xmlns="http://www.w3.org/2000/svg">
<path fill-rule="evenodd" clip-rule="evenodd" d="M13.8055 18.5812C13.8055 19.5815 12.9972 20.3924 12.0001 20.3924C11.003 20.3924 10.1947 19.5815 10.1947 18.5812C10.1947 17.5808 11.003 16.7699 12.0001 16.7699C12.9972 16.7699 13.8055 17.5808 13.8055 18.5812Z" fill="currentColor"/>
<mask id="ecricket_mask0_3067_2667" style="mask-type:alpha" maskUnits="userSpaceOnUse" x="7" y="3" width="13" height="14">
<path d="M7.00342 3.5H19.0588V16.3696H7.00342V3.5Z" fill="white"/>
</mask>
<g mask="url(#ecricket_mask0_3067_2667)">
<path fill-rule="evenodd" clip-rule="evenodd" d="M18.8536 5.30716L17.025 3.65895C16.7755 3.43403 16.3928 3.44965 16.1623 3.69412L7.16332 13.24C7.00113 13.4121 6.95677 13.6558 7.05585 13.8303L7.32132 14.2979L9.3449 16.1218L9.83663 16.3367C10.0202 16.4169 10.257 16.3467 10.4101 16.1665L18.9108 6.17142C19.1285 5.91543 19.1031 5.53202 18.8536 5.30716Z" fill="currentColor"/>
</g>
<mask id="ecricket_mask1_3067_2667" style="mask-type:alpha" maskUnits="userSpaceOnUse" x="4" y="3" width="8" height="8">
<path d="M4.94104 3.5H11.4516V10.4326H4.94104V3.5Z" fill="white"/>
</mask>
<g mask="url(#ecricket_mask1_3067_2667)">
<path fill-rule="evenodd" clip-rule="evenodd" d="M11.4516 7.52777L7.83746 3.69407C7.607 3.4496 7.22429 3.43398 6.97476 3.65884L5.1462 5.3071C4.89667 5.53191 4.87133 5.91538 5.08904 6.17131L8.71312 10.4326L11.4516 7.52777Z" fill="currentColor"/>
</g>
<path fill-rule="evenodd" clip-rule="evenodd" d="M15.3174 11.6283L12.5238 14.913L13.5898 16.1664C13.743 16.3464 13.9798 16.4167 14.1633 16.3366L14.6551 16.1216L16.6787 14.2977L16.9441 13.8302C17.0432 13.6556 16.9988 13.4119 16.8367 13.2399L15.3174 11.6283Z" fill="currentColor"/>
<mask id="ecricket_mask2_3067_2667" style="mask-type:alpha" maskUnits="userSpaceOnUse" x="3" y="14" width="6" height="7">
<path d="M3.5 14.8119H8.88479V20.5002H3.5V14.8119Z" fill="white"/>
</mask>
<g mask="url(#ecricket_mask2_3067_2667)">
<path fill-rule="evenodd" clip-rule="evenodd" d="M8.88481 16.6358L7.87575 17.0938C7.59753 17.22 7.35305 17.4106 7.16228 17.6498L5.05508 20.2927C4.85724 20.5408 4.49217 20.5709 4.25661 20.3586L3.68275 19.8413C3.44815 19.6299 3.43801 19.2644 3.66049 19.0402L6.04639 16.6359C6.25905 16.4216 6.41885 16.1604 6.51309 15.8732L6.86122 14.8119L8.88481 16.6358Z" fill="currentColor"/>
</g>
<path fill-rule="evenodd" clip-rule="evenodd" d="M19.5 14C21.9853 14 24 16.0147 24 18.5C24 20.9853 21.9853 23 19.5 23C17.0147 23 15 20.9853 15 18.5C15 16.0147 17.0147 14 19.5 14ZM19.5407 16C18.0467 16 17 17.1484 17 18.5711C17 20.1463 18.128 21.1524 19.622 21.1524C20.3841 21.1524 21.1565 20.9187 21.6443 20.4715L21.0752 19.6382C20.7602 19.9431 20.1809 20.126 19.7642 20.126C18.9309 20.126 18.4329 19.6077 18.3516 18.9878H22V18.7033C22 17.0976 21.0041 16 19.5407 16ZM19.5407 17.0264C20.3943 17.0264 20.7195 17.6463 20.75 18.1138H18.3313C18.3923 17.626 18.7378 17.0264 19.5407 17.0264Z" fill="currentColor"/>
</svg>
